# Dense cuboid asset generated by asset_generation/generate_robust_contacts.py
v -1.05000000 -1.05000000 1.05000000
v -1.05000000 -0.52500000 1.05000000
v -1.05000000 0.00000000 1.05000000
v -1.05000000 0.52500000 1.05000000
v -1.05000000 1.05000000 1.05000000
v -0.52500000 -1.05000000 1.05000000
v -0.52500000 -0.52500000 1.05000000
v -0.52500000 0.00000000 1.05000000
v -0.52500000 0.52500000 1.05000000
v -0.52500000 1.05000000 1.05000000
v 0.00000000 -1.05000000 1.05000000
v 0.00000000 -0.52500000 1.05000000
v 0.00000000 0.00000000 1.05000000
v 0.00000000 0.52500000 1.05000000
v 0.00000000 1.05000000 1.05000000
v 0.52500000 -1.05000000 1.05000000
v 0.52500000 -0.52500000 1.05000000
v 0.52500000 0.00000000 1.05000000
v 0.52500000 0.52500000 1.05000000
v 0.52500000 1.05000000 1.05000000
v 1.05000000 -1.05000000 1.05000000
v 1.05000000 -0.52500000 1.05000000
v 1.05000000 0.00000000 1.05000000
v 1.05000000 0.52500000 1.05000000
v 1.05000000 1.05000000 1.05000000
v 1.05000000 -1.05000000 -1.05000000
v 1.05000000 -1.05000000 -0.52500000
v 1.05000000 -1.05000000 0.00000000
v 1.05000000 -1.05000000 0.52500000
v 1.05000000 -1.05000000 1.05000000
v 1.05000000 -0.52500000 -1.05000000
v 1.05000000 -0.52500000 -0.52500000
v 1.05000000 -0.52500000 0.00000000
v 1.05000000 -0.52500000 0.52500000
v 1.05000000 -0.52500000 1.05000000
v 1.05000000 0.00000000 -1.05000000
v 1.05000000 0.00000000 -0.52500000
v 1.05000000 0.00000000 0.00000000
v 1.05000000 0.00000000 0.52500000
v 1.05000000 0.00000000 1.05000000
v 1.05000000 0.52500000 -1.05000000
v 1.05000000 0.52500000 -0.52500000
v 1.05000000 0.52500000 0.00000000
v 1.05000000 0.52500000 0.52500000
v 1.05000000 0.52500000 1.05000000
v 1.05000000 1.05000000 -1.05000000
v 1.05000000 1.05000000 -0.52500000
v 1.05000000 1.05000000 0.00000000
v 1.05000000 1.05000000 0.52500000
v 1.05000000 1.05000000 1.05000000
v -1.05000000 1.05000000 -1.05000000
v -1.05000000 1.05000000 -0.52500000
v -1.05000000 1.05000000 0.00000000
v -1.05000000 1.05000000 0.52500000
v -1.05000000 1.05000000 1.05000000
v -0.52500000 1.05000000 -1.05000000
v -0.52500000 1.05000000 -0.52500000
v -0.52500000 1.05000000 0.00000000
v -0.52500000 1.05000000 0.52500000
v -0.52500000 1.05000000 1.05000000
v 0.00000000 1.05000000 -1.05000000
v 0.00000000 1.05000000 -0.52500000
v 0.00000000 1.05000000 0.00000000
v 0.00000000 1.05000000 0.52500000
v 0.00000000 1.05000000 1.05000000
v 0.52500000 1.05000000 -1.05000000
v 0.52500000 1.05000000 -0.52500000
v 0.52500000 1.05000000 0.00000000
v 0.52500000 1.05000000 0.52500000
v 0.52500000 1.05000000 1.05000000
v 1.05000000 1.05000000 -1.05000000
v 1.05000000 1.05000000 -0.52500000
v 1.05000000 1.05000000 0.00000000
v 1.05000000 1.05000000 0.52500000
v 1.05000000 1.05000000 1.05000000
v -1.05000000 -1.05000000 -1.05000000
v -1.05000000 -1.05000000 -0.52500000
v -1.05000000 -1.05000000 0.00000000
v -1.05000000 -1.05000000 0.52500000
v -1.05000000 -1.05000000 1.05000000
v -1.05000000 -0.52500000 -1.05000000
v -1.05000000 -0.52500000 -0.52500000
v -1.05000000 -0.52500000 0.00000000
v -1.05000000 -0.52500000 0.52500000
v -1.05000000 -0.52500000 1.05000000
v -1.05000000 0.00000000 -1.05000000
v -1.05000000 0.00000000 -0.52500000
v -1.05000000 0.00000000 0.00000000
v -1.05000000 0.00000000 0.52500000
v -1.05000000 0.00000000 1.05000000
v -1.05000000 0.52500000 -1.05000000
v -1.05000000 0.52500000 -0.52500000
v -1.05000000 0.52500000 0.00000000
v -1.05000000 0.52500000 0.52500000
v -1.05000000 0.52500000 1.05000000
v -1.05000000 1.05000000 -1.05000000
v -1.05000000 1.05000000 -0.52500000
v -1.05000000 1.05000000 0.00000000
v -1.05000000 1.05000000 0.52500000
v -1.05000000 1.05000000 1.05000000
v -1.05000000 -1.05000000 -1.05000000
v -1.05000000 -0.52500000 -1.05000000
v -1.05000000 0.00000000 -1.05000000
v -1.05000000 0.52500000 -1.05000000
v -1.05000000 1.05000000 -1.05000000
v -0.52500000 -1.05000000 -1.05000000
v -0.52500000 -0.52500000 -1.05000000
v -0.52500000 0.00000000 -1.05000000
v -0.52500000 0.52500000 -1.05000000
v -0.52500000 1.05000000 -1.05000000
v 0.00000000 -1.05000000 -1.05000000
v 0.00000000 -0.52500000 -1.05000000
v 0.00000000 0.00000000 -1.05000000
v 0.00000000 0.52500000 -1.05000000
v 0.00000000 1.05000000 -1.05000000
v 0.52500000 -1.05000000 -1.05000000
v 0.52500000 -0.52500000 -1.05000000
v 0.52500000 0.00000000 -1.05000000
v 0.52500000 0.52500000 -1.05000000
v 0.52500000 1.05000000 -1.05000000
v 1.05000000 -1.05000000 -1.05000000
v 1.05000000 -0.52500000 -1.05000000
v 1.05000000 0.00000000 -1.05000000
v 1.05000000 0.52500000 -1.05000000
v 1.05000000 1.05000000 -1.05000000
v -1.05000000 -1.05000000 -1.05000000
v -1.05000000 -1.05000000 -0.52500000
v -1.05000000 -1.05000000 0.00000000
v -1.05000000 -1.05000000 0.52500000
v -1.05000000 -1.05000000 1.05000000
v -0.52500000 -1.05000000 -1.05000000
v -0.52500000 -1.05000000 -0.52500000
v -0.52500000 -1.05000000 0.00000000
v -0.52500000 -1.05000000 0.52500000
v -0.52500000 -1.05000000 1.05000000
v 0.00000000 -1.05000000 -1.05000000
v 0.00000000 -1.05000000 -0.52500000
v 0.00000000 -1.05000000 0.00000000
v 0.00000000 -1.05000000 0.52500000
v 0.00000000 -1.05000000 1.05000000
v 0.52500000 -1.05000000 -1.05000000
v 0.52500000 -1.05000000 -0.52500000
v 0.52500000 -1.05000000 0.00000000
v 0.52500000 -1.05000000 0.52500000
v 0.52500000 -1.05000000 1.05000000
v 1.05000000 -1.05000000 -1.05000000
v 1.05000000 -1.05000000 -0.52500000
v 1.05000000 -1.05000000 0.00000000
v 1.05000000 -1.05000000 0.52500000
v 1.05000000 -1.05000000 1.05000000
f 1 6 7
f 1 7 2
f 2 7 8
f 2 8 3
f 3 8 9
f 3 9 4
f 4 9 10
f 4 10 5
f 6 11 12
f 6 12 7
f 7 12 13
f 7 13 8
f 8 13 14
f 8 14 9
f 9 14 15
f 9 15 10
f 11 16 17
f 11 17 12
f 12 17 18
f 12 18 13
f 13 18 19
f 13 19 14
f 14 19 20
f 14 20 15
f 16 21 22
f 16 22 17
f 17 22 23
f 17 23 18
f 18 23 24
f 18 24 19
f 19 24 25
f 19 25 20
f 26 31 32
f 26 32 27
f 27 32 33
f 27 33 28
f 28 33 34
f 28 34 29
f 29 34 35
f 29 35 30
f 31 36 37
f 31 37 32
f 32 37 38
f 32 38 33
f 33 38 39
f 33 39 34
f 34 39 40
f 34 40 35
f 36 41 42
f 36 42 37
f 37 42 43
f 37 43 38
f 38 43 44
f 38 44 39
f 39 44 45
f 39 45 40
f 41 46 47
f 41 47 42
f 42 47 48
f 42 48 43
f 43 48 49
f 43 49 44
f 44 49 50
f 44 50 45
f 51 57 56
f 51 52 57
f 52 58 57
f 52 53 58
f 53 59 58
f 53 54 59
f 54 60 59
f 54 55 60
f 56 62 61
f 56 57 62
f 57 63 62
f 57 58 63
f 58 64 63
f 58 59 64
f 59 65 64
f 59 60 65
f 61 67 66
f 61 62 67
f 62 68 67
f 62 63 68
f 63 69 68
f 63 64 69
f 64 70 69
f 64 65 70
f 66 72 71
f 66 67 72
f 67 73 72
f 67 68 73
f 68 74 73
f 68 69 74
f 69 75 74
f 69 70 75
f 76 82 81
f 76 77 82
f 77 83 82
f 77 78 83
f 78 84 83
f 78 79 84
f 79 85 84
f 79 80 85
f 81 87 86
f 81 82 87
f 82 88 87
f 82 83 88
f 83 89 88
f 83 84 89
f 84 90 89
f 84 85 90
f 86 92 91
f 86 87 92
f 87 93 92
f 87 88 93
f 88 94 93
f 88 89 94
f 89 95 94
f 89 90 95
f 91 97 96
f 91 92 97
f 92 98 97
f 92 93 98
f 93 99 98
f 93 94 99
f 94 100 99
f 94 95 100
f 101 107 106
f 101 102 107
f 102 108 107
f 102 103 108
f 103 109 108
f 103 104 109
f 104 110 109
f 104 105 110
f 106 112 111
f 106 107 112
f 107 113 112
f 107 108 113
f 108 114 113
f 108 109 114
f 109 115 114
f 109 110 115
f 111 117 116
f 111 112 117
f 112 118 117
f 112 113 118
f 113 119 118
f 113 114 119
f 114 120 119
f 114 115 120
f 116 122 121
f 116 117 122
f 117 123 122
f 117 118 123
f 118 124 123
f 118 119 124
f 119 125 124
f 119 120 125
f 126 131 132
f 126 132 127
f 127 132 133
f 127 133 128
f 128 133 134
f 128 134 129
f 129 134 135
f 129 135 130
f 131 136 137
f 131 137 132
f 132 137 138
f 132 138 133
f 133 138 139
f 133 139 134
f 134 139 140
f 134 140 135
f 136 141 142
f 136 142 137
f 137 142 143
f 137 143 138
f 138 143 144
f 138 144 139
f 139 144 145
f 139 145 140
f 141 146 147
f 141 147 142
f 142 147 148
f 142 148 143
f 143 148 149
f 143 149 144
f 144 149 150
f 144 150 145
