# Cube-relative cuboid generated by asset_generation/generate_small_cuboid.py
v -0.3465000000 -0.3465000000 0.7035000000
v -0.3465000000 -0.1155000000 0.7035000000
v -0.3465000000 0.1155000000 0.7035000000
v -0.3465000000 0.3465000000 0.7035000000
v -0.1155000000 -0.3465000000 0.7035000000
v -0.1155000000 -0.1155000000 0.7035000000
v -0.1155000000 0.1155000000 0.7035000000
v -0.1155000000 0.3465000000 0.7035000000
v 0.1155000000 -0.3465000000 0.7035000000
v 0.1155000000 -0.1155000000 0.7035000000
v 0.1155000000 0.1155000000 0.7035000000
v 0.1155000000 0.3465000000 0.7035000000
v 0.3465000000 -0.3465000000 0.7035000000
v 0.3465000000 -0.1155000000 0.7035000000
v 0.3465000000 0.1155000000 0.7035000000
v 0.3465000000 0.3465000000 0.7035000000
v 0.3465000000 -0.3465000000 -0.7035000000
v 0.3465000000 -0.3465000000 -0.4221000000
v 0.3465000000 -0.3465000000 -0.1407000000
v 0.3465000000 -0.3465000000 0.1407000000
v 0.3465000000 -0.3465000000 0.4221000000
v 0.3465000000 -0.3465000000 0.7035000000
v 0.3465000000 -0.1155000000 -0.7035000000
v 0.3465000000 -0.1155000000 -0.4221000000
v 0.3465000000 -0.1155000000 -0.1407000000
v 0.3465000000 -0.1155000000 0.1407000000
v 0.3465000000 -0.1155000000 0.4221000000
v 0.3465000000 -0.1155000000 0.7035000000
v 0.3465000000 0.1155000000 -0.7035000000
v 0.3465000000 0.1155000000 -0.4221000000
v 0.3465000000 0.1155000000 -0.1407000000
v 0.3465000000 0.1155000000 0.1407000000
v 0.3465000000 0.1155000000 0.4221000000
v 0.3465000000 0.1155000000 0.7035000000
v 0.3465000000 0.3465000000 -0.7035000000
v 0.3465000000 0.3465000000 -0.4221000000
v 0.3465000000 0.3465000000 -0.1407000000
v 0.3465000000 0.3465000000 0.1407000000
v 0.3465000000 0.3465000000 0.4221000000
v 0.3465000000 0.3465000000 0.7035000000
v -0.3465000000 0.3465000000 -0.7035000000
v -0.3465000000 0.3465000000 -0.4221000000
v -0.3465000000 0.3465000000 -0.1407000000
v -0.3465000000 0.3465000000 0.1407000000
v -0.3465000000 0.3465000000 0.4221000000
v -0.3465000000 0.3465000000 0.7035000000
v -0.1155000000 0.3465000000 -0.7035000000
v -0.1155000000 0.3465000000 -0.4221000000
v -0.1155000000 0.3465000000 -0.1407000000
v -0.1155000000 0.3465000000 0.1407000000
v -0.1155000000 0.3465000000 0.4221000000
v -0.1155000000 0.3465000000 0.7035000000
v 0.1155000000 0.3465000000 -0.7035000000
v 0.1155000000 0.3465000000 -0.4221000000
v 0.1155000000 0.3465000000 -0.1407000000
v 0.1155000000 0.3465000000 0.1407000000
v 0.1155000000 0.3465000000 0.4221000000
v 0.1155000000 0.3465000000 0.7035000000
v 0.3465000000 0.3465000000 -0.7035000000
v 0.3465000000 0.3465000000 -0.4221000000
v 0.3465000000 0.3465000000 -0.1407000000
v 0.3465000000 0.3465000000 0.1407000000
v 0.3465000000 0.3465000000 0.4221000000
v 0.3465000000 0.3465000000 0.7035000000
v -0.3465000000 -0.3465000000 -0.7035000000
v -0.3465000000 -0.3465000000 -0.4221000000
v -0.3465000000 -0.3465000000 -0.1407000000
v -0.3465000000 -0.3465000000 0.1407000000
v -0.3465000000 -0.3465000000 0.4221000000
v -0.3465000000 -0.3465000000 0.7035000000
v -0.3465000000 -0.1155000000 -0.7035000000
v -0.3465000000 -0.1155000000 -0.4221000000
v -0.3465000000 -0.1155000000 -0.1407000000
v -0.3465000000 -0.1155000000 0.1407000000
v -0.3465000000 -0.1155000000 0.4221000000
v -0.3465000000 -0.1155000000 0.7035000000
v -0.3465000000 0.1155000000 -0.7035000000
v -0.3465000000 0.1155000000 -0.4221000000
v -0.3465000000 0.1155000000 -0.1407000000
v -0.3465000000 0.1155000000 0.1407000000
v -0.3465000000 0.1155000000 0.4221000000
v -0.3465000000 0.1155000000 0.7035000000
v -0.3465000000 0.3465000000 -0.7035000000
v -0.3465000000 0.3465000000 -0.4221000000
v -0.3465000000 0.3465000000 -0.1407000000
v -0.3465000000 0.3465000000 0.1407000000
v -0.3465000000 0.3465000000 0.4221000000
v -0.3465000000 0.3465000000 0.7035000000
v -0.3465000000 -0.3465000000 -0.7035000000
v -0.3465000000 -0.1155000000 -0.7035000000
v -0.3465000000 0.1155000000 -0.7035000000
v -0.3465000000 0.3465000000 -0.7035000000
v -0.1155000000 -0.3465000000 -0.7035000000
v -0.1155000000 -0.1155000000 -0.7035000000
v -0.1155000000 0.1155000000 -0.7035000000
v -0.1155000000 0.3465000000 -0.7035000000
v 0.1155000000 -0.3465000000 -0.7035000000
v 0.1155000000 -0.1155000000 -0.7035000000
v 0.1155000000 0.1155000000 -0.7035000000
v 0.1155000000 0.3465000000 -0.7035000000
v 0.3465000000 -0.3465000000 -0.7035000000
v 0.3465000000 -0.1155000000 -0.7035000000
v 0.3465000000 0.1155000000 -0.7035000000
v 0.3465000000 0.3465000000 -0.7035000000
v -0.3465000000 -0.3465000000 -0.7035000000
v -0.3465000000 -0.3465000000 -0.4221000000
v -0.3465000000 -0.3465000000 -0.1407000000
v -0.3465000000 -0.3465000000 0.1407000000
v -0.3465000000 -0.3465000000 0.4221000000
v -0.3465000000 -0.3465000000 0.7035000000
v -0.1155000000 -0.3465000000 -0.7035000000
v -0.1155000000 -0.3465000000 -0.4221000000
v -0.1155000000 -0.3465000000 -0.1407000000
v -0.1155000000 -0.3465000000 0.1407000000
v -0.1155000000 -0.3465000000 0.4221000000
v -0.1155000000 -0.3465000000 0.7035000000
v 0.1155000000 -0.3465000000 -0.7035000000
v 0.1155000000 -0.3465000000 -0.4221000000
v 0.1155000000 -0.3465000000 -0.1407000000
v 0.1155000000 -0.3465000000 0.1407000000
v 0.1155000000 -0.3465000000 0.4221000000
v 0.1155000000 -0.3465000000 0.7035000000
v 0.3465000000 -0.3465000000 -0.7035000000
v 0.3465000000 -0.3465000000 -0.4221000000
v 0.3465000000 -0.3465000000 -0.1407000000
v 0.3465000000 -0.3465000000 0.1407000000
v 0.3465000000 -0.3465000000 0.4221000000
v 0.3465000000 -0.3465000000 0.7035000000
f 1 5 6
f 1 6 2
f 2 6 7
f 2 7 3
f 3 7 8
f 3 8 4
f 5 9 10
f 5 10 6
f 6 10 11
f 6 11 7
f 7 11 12
f 7 12 8
f 9 13 14
f 9 14 10
f 10 14 15
f 10 15 11
f 11 15 16
f 11 16 12
f 17 23 24
f 17 24 18
f 18 24 25
f 18 25 19
f 19 25 26
f 19 26 20
f 20 26 27
f 20 27 21
f 21 27 28
f 21 28 22
f 23 29 30
f 23 30 24
f 24 30 31
f 24 31 25
f 25 31 32
f 25 32 26
f 26 32 33
f 26 33 27
f 27 33 34
f 27 34 28
f 29 35 36
f 29 36 30
f 30 36 37
f 30 37 31
f 31 37 38
f 31 38 32
f 32 38 39
f 32 39 33
f 33 39 40
f 33 40 34
f 41 48 47
f 41 42 48
f 42 49 48
f 42 43 49
f 43 50 49
f 43 44 50
f 44 51 50
f 44 45 51
f 45 52 51
f 45 46 52
f 47 54 53
f 47 48 54
f 48 55 54
f 48 49 55
f 49 56 55
f 49 50 56
f 50 57 56
f 50 51 57
f 51 58 57
f 51 52 58
f 53 60 59
f 53 54 60
f 54 61 60
f 54 55 61
f 55 62 61
f 55 56 62
f 56 63 62
f 56 57 63
f 57 64 63
f 57 58 64
f 65 72 71
f 65 66 72
f 66 73 72
f 66 67 73
f 67 74 73
f 67 68 74
f 68 75 74
f 68 69 75
f 69 76 75
f 69 70 76
f 71 78 77
f 71 72 78
f 72 79 78
f 72 73 79
f 73 80 79
f 73 74 80
f 74 81 80
f 74 75 81
f 75 82 81
f 75 76 82
f 77 84 83
f 77 78 84
f 78 85 84
f 78 79 85
f 79 86 85
f 79 80 86
f 80 87 86
f 80 81 87
f 81 88 87
f 81 82 88
f 89 94 93
f 89 90 94
f 90 95 94
f 90 91 95
f 91 96 95
f 91 92 96
f 93 98 97
f 93 94 98
f 94 99 98
f 94 95 99
f 95 100 99
f 95 96 100
f 97 102 101
f 97 98 102
f 98 103 102
f 98 99 103
f 99 104 103
f 99 100 104
f 105 111 112
f 105 112 106
f 106 112 113
f 106 113 107
f 107 113 114
f 107 114 108
f 108 114 115
f 108 115 109
f 109 115 116
f 109 116 110
f 111 117 118
f 111 118 112
f 112 118 119
f 112 119 113
f 113 119 120
f 113 120 114
f 114 120 121
f 114 121 115
f 115 121 122
f 115 122 116
f 117 123 124
f 117 124 118
f 118 124 125
f 118 125 119
f 119 125 126
f 119 126 120
f 120 126 127
f 120 127 121
f 121 127 128
f 121 128 122
