# Dense cuboid asset generated by asset_generation/generate_robust_contacts.py
v -2.00000000 -0.10000000 2.00000000
v -2.00000000 0.10000000 2.00000000
v -1.42857143 -0.10000000 2.00000000
v -1.42857143 0.10000000 2.00000000
v -0.85714286 -0.10000000 2.00000000
v -0.85714286 0.10000000 2.00000000
v -0.28571429 -0.10000000 2.00000000
v -0.28571429 0.10000000 2.00000000
v 0.28571429 -0.10000000 2.00000000
v 0.28571429 0.10000000 2.00000000
v 0.85714286 -0.10000000 2.00000000
v 0.85714286 0.10000000 2.00000000
v 1.42857143 -0.10000000 2.00000000
v 1.42857143 0.10000000 2.00000000
v 2.00000000 -0.10000000 2.00000000
v 2.00000000 0.10000000 2.00000000
v 2.00000000 -0.10000000 -2.00000000
v 2.00000000 -0.10000000 -1.42857143
v 2.00000000 -0.10000000 -0.85714286
v 2.00000000 -0.10000000 -0.28571429
v 2.00000000 -0.10000000 0.28571429
v 2.00000000 -0.10000000 0.85714286
v 2.00000000 -0.10000000 1.42857143
v 2.00000000 -0.10000000 2.00000000
v 2.00000000 0.10000000 -2.00000000
v 2.00000000 0.10000000 -1.42857143
v 2.00000000 0.10000000 -0.85714286
v 2.00000000 0.10000000 -0.28571429
v 2.00000000 0.10000000 0.28571429
v 2.00000000 0.10000000 0.85714286
v 2.00000000 0.10000000 1.42857143
v 2.00000000 0.10000000 2.00000000
v -2.00000000 0.10000000 -2.00000000
v -2.00000000 0.10000000 -1.42857143
v -2.00000000 0.10000000 -0.85714286
v -2.00000000 0.10000000 -0.28571429
v -2.00000000 0.10000000 0.28571429
v -2.00000000 0.10000000 0.85714286
v -2.00000000 0.10000000 1.42857143
v -2.00000000 0.10000000 2.00000000
v -1.42857143 0.10000000 -2.00000000
v -1.42857143 0.10000000 -1.42857143
v -1.42857143 0.10000000 -0.85714286
v -1.42857143 0.10000000 -0.28571429
v -1.42857143 0.10000000 0.28571429
v -1.42857143 0.10000000 0.85714286
v -1.42857143 0.10000000 1.42857143
v -1.42857143 0.10000000 2.00000000
v -0.85714286 0.10000000 -2.00000000
v -0.85714286 0.10000000 -1.42857143
v -0.85714286 0.10000000 -0.85714286
v -0.85714286 0.10000000 -0.28571429
v -0.85714286 0.10000000 0.28571429
v -0.85714286 0.10000000 0.85714286
v -0.85714286 0.10000000 1.42857143
v -0.85714286 0.10000000 2.00000000
v -0.28571429 0.10000000 -2.00000000
v -0.28571429 0.10000000 -1.42857143
v -0.28571429 0.10000000 -0.85714286
v -0.28571429 0.10000000 -0.28571429
v -0.28571429 0.10000000 0.28571429
v -0.28571429 0.10000000 0.85714286
v -0.28571429 0.10000000 1.42857143
v -0.28571429 0.10000000 2.00000000
v 0.28571429 0.10000000 -2.00000000
v 0.28571429 0.10000000 -1.42857143
v 0.28571429 0.10000000 -0.85714286
v 0.28571429 0.10000000 -0.28571429
v 0.28571429 0.10000000 0.28571429
v 0.28571429 0.10000000 0.85714286
v 0.28571429 0.10000000 1.42857143
v 0.28571429 0.10000000 2.00000000
v 0.85714286 0.10000000 -2.00000000
v 0.85714286 0.10000000 -1.42857143
v 0.85714286 0.10000000 -0.85714286
v 0.85714286 0.10000000 -0.28571429
v 0.85714286 0.10000000 0.28571429
v 0.85714286 0.10000000 0.85714286
v 0.85714286 0.10000000 1.42857143
v 0.85714286 0.10000000 2.00000000
v 1.42857143 0.10000000 -2.00000000
v 1.42857143 0.10000000 -1.42857143
v 1.42857143 0.10000000 -0.85714286
v 1.42857143 0.10000000 -0.28571429
v 1.42857143 0.10000000 0.28571429
v 1.42857143 0.10000000 0.85714286
v 1.42857143 0.10000000 1.42857143
v 1.42857143 0.10000000 2.00000000
v 2.00000000 0.10000000 -2.00000000
v 2.00000000 0.10000000 -1.42857143
v 2.00000000 0.10000000 -0.85714286
v 2.00000000 0.10000000 -0.28571429
v 2.00000000 0.10000000 0.28571429
v 2.00000000 0.10000000 0.85714286
v 2.00000000 0.10000000 1.42857143
v 2.00000000 0.10000000 2.00000000
v -2.00000000 -0.10000000 -2.00000000
v -2.00000000 -0.10000000 -1.42857143
v -2.00000000 -0.10000000 -0.85714286
v -2.00000000 -0.10000000 -0.28571429
v -2.00000000 -0.10000000 0.28571429
v -2.00000000 -0.10000000 0.85714286
v -2.00000000 -0.10000000 1.42857143
v -2.00000000 -0.10000000 2.00000000
v -2.00000000 0.10000000 -2.00000000
v -2.00000000 0.10000000 -1.42857143
v -2.00000000 0.10000000 -0.85714286
v -2.00000000 0.10000000 -0.28571429
v -2.00000000 0.10000000 0.28571429
v -2.00000000 0.10000000 0.85714286
v -2.00000000 0.10000000 1.42857143
v -2.00000000 0.10000000 2.00000000
v -2.00000000 -0.10000000 -2.00000000
v -2.00000000 0.10000000 -2.00000000
v -1.42857143 -0.10000000 -2.00000000
v -1.42857143 0.10000000 -2.00000000
v -0.85714286 -0.10000000 -2.00000000
v -0.85714286 0.10000000 -2.00000000
v -0.28571429 -0.10000000 -2.00000000
v -0.28571429 0.10000000 -2.00000000
v 0.28571429 -0.10000000 -2.00000000
v 0.28571429 0.10000000 -2.00000000
v 0.85714286 -0.10000000 -2.00000000
v 0.85714286 0.10000000 -2.00000000
v 1.42857143 -0.10000000 -2.00000000
v 1.42857143 0.10000000 -2.00000000
v 2.00000000 -0.10000000 -2.00000000
v 2.00000000 0.10000000 -2.00000000
v -2.00000000 -0.10000000 -2.00000000
v -2.00000000 -0.10000000 -1.42857143
v -2.00000000 -0.10000000 -0.85714286
v -2.00000000 -0.10000000 -0.28571429
v -2.00000000 -0.10000000 0.28571429
v -2.00000000 -0.10000000 0.85714286
v -2.00000000 -0.10000000 1.42857143
v -2.00000000 -0.10000000 2.00000000
v -1.42857143 -0.10000000 -2.00000000
v -1.42857143 -0.10000000 -1.42857143
v -1.42857143 -0.10000000 -0.85714286
v -1.42857143 -0.10000000 -0.28571429
v -1.42857143 -0.10000000 0.28571429
v -1.42857143 -0.10000000 0.85714286
v -1.42857143 -0.10000000 1.42857143
v -1.42857143 -0.10000000 2.00000000
v -0.85714286 -0.10000000 -2.00000000
v -0.85714286 -0.10000000 -1.42857143
v -0.85714286 -0.10000000 -0.85714286
v -0.85714286 -0.10000000 -0.28571429
v -0.85714286 -0.10000000 0.28571429
v -0.85714286 -0.10000000 0.85714286
v -0.85714286 -0.10000000 1.42857143
v -0.85714286 -0.10000000 2.00000000
v -0.28571429 -0.10000000 -2.00000000
v -0.28571429 -0.10000000 -1.42857143
v -0.28571429 -0.10000000 -0.85714286
v -0.28571429 -0.10000000 -0.28571429
v -0.28571429 -0.10000000 0.28571429
v -0.28571429 -0.10000000 0.85714286
v -0.28571429 -0.10000000 1.42857143
v -0.28571429 -0.10000000 2.00000000
v 0.28571429 -0.10000000 -2.00000000
v 0.28571429 -0.10000000 -1.42857143
v 0.28571429 -0.10000000 -0.85714286
v 0.28571429 -0.10000000 -0.28571429
v 0.28571429 -0.10000000 0.28571429
v 0.28571429 -0.10000000 0.85714286
v 0.28571429 -0.10000000 1.42857143
v 0.28571429 -0.10000000 2.00000000
v 0.85714286 -0.10000000 -2.00000000
v 0.85714286 -0.10000000 -1.42857143
v 0.85714286 -0.10000000 -0.85714286
v 0.85714286 -0.10000000 -0.28571429
v 0.85714286 -0.10000000 0.28571429
v 0.85714286 -0.10000000 0.85714286
v 0.85714286 -0.10000000 1.42857143
v 0.85714286 -0.10000000 2.00000000
v 1.42857143 -0.10000000 -2.00000000
v 1.42857143 -0.10000000 -1.42857143
v 1.42857143 -0.10000000 -0.85714286
v 1.42857143 -0.10000000 -0.28571429
v 1.42857143 -0.10000000 0.28571429
v 1.42857143 -0.10000000 0.85714286
v 1.42857143 -0.10000000 1.42857143
v 1.42857143 -0.10000000 2.00000000
v 2.00000000 -0.10000000 -2.00000000
v 2.00000000 -0.10000000 -1.42857143
v 2.00000000 -0.10000000 -0.85714286
v 2.00000000 -0.10000000 -0.28571429
v 2.00000000 -0.10000000 0.28571429
v 2.00000000 -0.10000000 0.85714286
v 2.00000000 -0.10000000 1.42857143
v 2.00000000 -0.10000000 2.00000000
f 1 3 4
f 1 4 2
f 3 5 6
f 3 6 4
f 5 7 8
f 5 8 6
f 7 9 10
f 7 10 8
f 9 11 12
f 9 12 10
f 11 13 14
f 11 14 12
f 13 15 16
f 13 16 14
f 17 25 26
f 17 26 18
f 18 26 27
f 18 27 19
f 19 27 28
f 19 28 20
f 20 28 29
f 20 29 21
f 21 29 30
f 21 30 22
f 22 30 31
f 22 31 23
f 23 31 32
f 23 32 24
f 33 42 41
f 33 34 42
f 34 43 42
f 34 35 43
f 35 44 43
f 35 36 44
f 36 45 44
f 36 37 45
f 37 46 45
f 37 38 46
f 38 47 46
f 38 39 47
f 39 48 47
f 39 40 48
f 41 50 49
f 41 42 50
f 42 51 50
f 42 43 51
f 43 52 51
f 43 44 52
f 44 53 52
f 44 45 53
f 45 54 53
f 45 46 54
f 46 55 54
f 46 47 55
f 47 56 55
f 47 48 56
f 49 58 57
f 49 50 58
f 50 59 58
f 50 51 59
f 51 60 59
f 51 52 60
f 52 61 60
f 52 53 61
f 53 62 61
f 53 54 62
f 54 63 62
f 54 55 63
f 55 64 63
f 55 56 64
f 57 66 65
f 57 58 66
f 58 67 66
f 58 59 67
f 59 68 67
f 59 60 68
f 60 69 68
f 60 61 69
f 61 70 69
f 61 62 70
f 62 71 70
f 62 63 71
f 63 72 71
f 63 64 72
f 65 74 73
f 65 66 74
f 66 75 74
f 66 67 75
f 67 76 75
f 67 68 76
f 68 77 76
f 68 69 77
f 69 78 77
f 69 70 78
f 70 79 78
f 70 71 79
f 71 80 79
f 71 72 80
f 73 82 81
f 73 74 82
f 74 83 82
f 74 75 83
f 75 84 83
f 75 76 84
f 76 85 84
f 76 77 85
f 77 86 85
f 77 78 86
f 78 87 86
f 78 79 87
f 79 88 87
f 79 80 88
f 81 90 89
f 81 82 90
f 82 91 90
f 82 83 91
f 83 92 91
f 83 84 92
f 84 93 92
f 84 85 93
f 85 94 93
f 85 86 94
f 86 95 94
f 86 87 95
f 87 96 95
f 87 88 96
f 97 106 105
f 97 98 106
f 98 107 106
f 98 99 107
f 99 108 107
f 99 100 108
f 100 109 108
f 100 101 109
f 101 110 109
f 101 102 110
f 102 111 110
f 102 103 111
f 103 112 111
f 103 104 112
f 113 116 115
f 113 114 116
f 115 118 117
f 115 116 118
f 117 120 119
f 117 118 120
f 119 122 121
f 119 120 122
f 121 124 123
f 121 122 124
f 123 126 125
f 123 124 126
f 125 128 127
f 125 126 128
f 129 137 138
f 129 138 130
f 130 138 139
f 130 139 131
f 131 139 140
f 131 140 132
f 132 140 141
f 132 141 133
f 133 141 142
f 133 142 134
f 134 142 143
f 134 143 135
f 135 143 144
f 135 144 136
f 137 145 146
f 137 146 138
f 138 146 147
f 138 147 139
f 139 147 148
f 139 148 140
f 140 148 149
f 140 149 141
f 141 149 150
f 141 150 142
f 142 150 151
f 142 151 143
f 143 151 152
f 143 152 144
f 145 153 154
f 145 154 146
f 146 154 155
f 146 155 147
f 147 155 156
f 147 156 148
f 148 156 157
f 148 157 149
f 149 157 158
f 149 158 150
f 150 158 159
f 150 159 151
f 151 159 160
f 151 160 152
f 153 161 162
f 153 162 154
f 154 162 163
f 154 163 155
f 155 163 164
f 155 164 156
f 156 164 165
f 156 165 157
f 157 165 166
f 157 166 158
f 158 166 167
f 158 167 159
f 159 167 168
f 159 168 160
f 161 169 170
f 161 170 162
f 162 170 171
f 162 171 163
f 163 171 172
f 163 172 164
f 164 172 173
f 164 173 165
f 165 173 174
f 165 174 166
f 166 174 175
f 166 175 167
f 167 175 176
f 167 176 168
f 169 177 178
f 169 178 170
f 170 178 179
f 170 179 171
f 171 179 180
f 171 180 172
f 172 180 181
f 172 181 173
f 173 181 182
f 173 182 174
f 174 182 183
f 174 183 175
f 175 183 184
f 175 184 176
f 177 185 186
f 177 186 178
f 178 186 187
f 178 187 179
f 179 187 188
f 179 188 180
f 180 188 189
f 180 189 181
f 181 189 190
f 181 190 182
f 182 190 191
f 182 191 183
f 183 191 192
f 183 192 184
