# Shared fixed Handle; canonical long axis is local +Y.
v 0.4500000000 -4.0000000000 0.0000000000
v 0.4157457896 -4.0000000000 0.1722075446
v 0.3181980515 -4.0000000000 0.3181980515
v 0.1722075446 -4.0000000000 0.4157457896
v 0.0000000000 -4.0000000000 0.4500000000
v -0.1722075446 -4.0000000000 0.4157457896
v -0.3181980515 -4.0000000000 0.3181980515
v -0.4157457896 -4.0000000000 0.1722075446
v -0.4500000000 -4.0000000000 0.0000000000
v -0.4157457896 -4.0000000000 -0.1722075446
v -0.3181980515 -4.0000000000 -0.3181980515
v -0.1722075446 -4.0000000000 -0.4157457896
v -0.0000000000 -4.0000000000 -0.4500000000
v 0.1722075446 -4.0000000000 -0.4157457896
v 0.3181980515 -4.0000000000 -0.3181980515
v 0.4157457896 -4.0000000000 -0.1722075446
v 0.4500000000 -3.0000000000 0.0000000000
v 0.4157457896 -3.0000000000 0.1722075446
v 0.3181980515 -3.0000000000 0.3181980515
v 0.1722075446 -3.0000000000 0.4157457896
v 0.0000000000 -3.0000000000 0.4500000000
v -0.1722075446 -3.0000000000 0.4157457896
v -0.3181980515 -3.0000000000 0.3181980515
v -0.4157457896 -3.0000000000 0.1722075446
v -0.4500000000 -3.0000000000 0.0000000000
v -0.4157457896 -3.0000000000 -0.1722075446
v -0.3181980515 -3.0000000000 -0.3181980515
v -0.1722075446 -3.0000000000 -0.4157457896
v -0.0000000000 -3.0000000000 -0.4500000000
v 0.1722075446 -3.0000000000 -0.4157457896
v 0.3181980515 -3.0000000000 -0.3181980515
v 0.4157457896 -3.0000000000 -0.1722075446
v 0.4500000000 -2.0000000000 0.0000000000
v 0.4157457896 -2.0000000000 0.1722075446
v 0.3181980515 -2.0000000000 0.3181980515
v 0.1722075446 -2.0000000000 0.4157457896
v 0.0000000000 -2.0000000000 0.4500000000
v -0.1722075446 -2.0000000000 0.4157457896
v -0.3181980515 -2.0000000000 0.3181980515
v -0.4157457896 -2.0000000000 0.1722075446
v -0.4500000000 -2.0000000000 0.0000000000
v -0.4157457896 -2.0000000000 -0.1722075446
v -0.3181980515 -2.0000000000 -0.3181980515
v -0.1722075446 -2.0000000000 -0.4157457896
v -0.0000000000 -2.0000000000 -0.4500000000
v 0.1722075446 -2.0000000000 -0.4157457896
v 0.3181980515 -2.0000000000 -0.3181980515
v 0.4157457896 -2.0000000000 -0.1722075446
v 0.4500000000 -1.0000000000 0.0000000000
v 0.4157457896 -1.0000000000 0.1722075446
v 0.3181980515 -1.0000000000 0.3181980515
v 0.1722075446 -1.0000000000 0.4157457896
v 0.0000000000 -1.0000000000 0.4500000000
v -0.1722075446 -1.0000000000 0.4157457896
v -0.3181980515 -1.0000000000 0.3181980515
v -0.4157457896 -1.0000000000 0.1722075446
v -0.4500000000 -1.0000000000 0.0000000000
v -0.4157457896 -1.0000000000 -0.1722075446
v -0.3181980515 -1.0000000000 -0.3181980515
v -0.1722075446 -1.0000000000 -0.4157457896
v -0.0000000000 -1.0000000000 -0.4500000000
v 0.1722075446 -1.0000000000 -0.4157457896
v 0.3181980515 -1.0000000000 -0.3181980515
v 0.4157457896 -1.0000000000 -0.1722075446
v 0.4500000000 0.0000000000 0.0000000000
v 0.4157457896 0.0000000000 0.1722075446
v 0.3181980515 0.0000000000 0.3181980515
v 0.1722075446 0.0000000000 0.4157457896
v 0.0000000000 0.0000000000 0.4500000000
v -0.1722075446 0.0000000000 0.4157457896
v -0.3181980515 0.0000000000 0.3181980515
v -0.4157457896 0.0000000000 0.1722075446
v -0.4500000000 0.0000000000 0.0000000000
v -0.4157457896 0.0000000000 -0.1722075446
v -0.3181980515 0.0000000000 -0.3181980515
v -0.1722075446 0.0000000000 -0.4157457896
v -0.0000000000 0.0000000000 -0.4500000000
v 0.1722075446 0.0000000000 -0.4157457896
v 0.3181980515 0.0000000000 -0.3181980515
v 0.4157457896 0.0000000000 -0.1722075446
v 0.4500000000 1.0000000000 0.0000000000
v 0.4157457896 1.0000000000 0.1722075446
v 0.3181980515 1.0000000000 0.3181980515
v 0.1722075446 1.0000000000 0.4157457896
v 0.0000000000 1.0000000000 0.4500000000
v -0.1722075446 1.0000000000 0.4157457896
v -0.3181980515 1.0000000000 0.3181980515
v -0.4157457896 1.0000000000 0.1722075446
v -0.4500000000 1.0000000000 0.0000000000
v -0.4157457896 1.0000000000 -0.1722075446
v -0.3181980515 1.0000000000 -0.3181980515
v -0.1722075446 1.0000000000 -0.4157457896
v -0.0000000000 1.0000000000 -0.4500000000
v 0.1722075446 1.0000000000 -0.4157457896
v 0.3181980515 1.0000000000 -0.3181980515
v 0.4157457896 1.0000000000 -0.1722075446
v 0.4500000000 2.0000000000 0.0000000000
v 0.4157457896 2.0000000000 0.1722075446
v 0.3181980515 2.0000000000 0.3181980515
v 0.1722075446 2.0000000000 0.4157457896
v 0.0000000000 2.0000000000 0.4500000000
v -0.1722075446 2.0000000000 0.4157457896
v -0.3181980515 2.0000000000 0.3181980515
v -0.4157457896 2.0000000000 0.1722075446
v -0.4500000000 2.0000000000 0.0000000000
v -0.4157457896 2.0000000000 -0.1722075446
v -0.3181980515 2.0000000000 -0.3181980515
v -0.1722075446 2.0000000000 -0.4157457896
v -0.0000000000 2.0000000000 -0.4500000000
v 0.1722075446 2.0000000000 -0.4157457896
v 0.3181980515 2.0000000000 -0.3181980515
v 0.4157457896 2.0000000000 -0.1722075446
v 0.4500000000 3.0000000000 0.0000000000
v 0.4157457896 3.0000000000 0.1722075446
v 0.3181980515 3.0000000000 0.3181980515
v 0.1722075446 3.0000000000 0.4157457896
v 0.0000000000 3.0000000000 0.4500000000
v -0.1722075446 3.0000000000 0.4157457896
v -0.3181980515 3.0000000000 0.3181980515
v -0.4157457896 3.0000000000 0.1722075446
v -0.4500000000 3.0000000000 0.0000000000
v -0.4157457896 3.0000000000 -0.1722075446
v -0.3181980515 3.0000000000 -0.3181980515
v -0.1722075446 3.0000000000 -0.4157457896
v -0.0000000000 3.0000000000 -0.4500000000
v 0.1722075446 3.0000000000 -0.4157457896
v 0.3181980515 3.0000000000 -0.3181980515
v 0.4157457896 3.0000000000 -0.1722075446
v 0.4500000000 4.0000000000 0.0000000000
v 0.4157457896 4.0000000000 0.1722075446
v 0.3181980515 4.0000000000 0.3181980515
v 0.1722075446 4.0000000000 0.4157457896
v 0.0000000000 4.0000000000 0.4500000000
v -0.1722075446 4.0000000000 0.4157457896
v -0.3181980515 4.0000000000 0.3181980515
v -0.4157457896 4.0000000000 0.1722075446
v -0.4500000000 4.0000000000 0.0000000000
v -0.4157457896 4.0000000000 -0.1722075446
v -0.3181980515 4.0000000000 -0.3181980515
v -0.1722075446 4.0000000000 -0.4157457896
v -0.0000000000 4.0000000000 -0.4500000000
v 0.1722075446 4.0000000000 -0.4157457896
v 0.3181980515 4.0000000000 -0.3181980515
v 0.4157457896 4.0000000000 -0.1722075446
v 0.0000000000 -4.0000000000 0.0000000000
v 0.0000000000 4.0000000000 0.0000000000
f 1 18 2
f 1 17 18
f 2 19 3
f 2 18 19
f 3 20 4
f 3 19 20
f 4 21 5
f 4 20 21
f 5 22 6
f 5 21 22
f 6 23 7
f 6 22 23
f 7 24 8
f 7 23 24
f 8 25 9
f 8 24 25
f 9 26 10
f 9 25 26
f 10 27 11
f 10 26 27
f 11 28 12
f 11 27 28
f 12 29 13
f 12 28 29
f 13 30 14
f 13 29 30
f 14 31 15
f 14 30 31
f 15 32 16
f 15 31 32
f 16 17 1
f 16 32 17
f 17 34 18
f 17 33 34
f 18 35 19
f 18 34 35
f 19 36 20
f 19 35 36
f 20 37 21
f 20 36 37
f 21 38 22
f 21 37 38
f 22 39 23
f 22 38 39
f 23 40 24
f 23 39 40
f 24 41 25
f 24 40 41
f 25 42 26
f 25 41 42
f 26 43 27
f 26 42 43
f 27 44 28
f 27 43 44
f 28 45 29
f 28 44 45
f 29 46 30
f 29 45 46
f 30 47 31
f 30 46 47
f 31 48 32
f 31 47 48
f 32 33 17
f 32 48 33
f 33 50 34
f 33 49 50
f 34 51 35
f 34 50 51
f 35 52 36
f 35 51 52
f 36 53 37
f 36 52 53
f 37 54 38
f 37 53 54
f 38 55 39
f 38 54 55
f 39 56 40
f 39 55 56
f 40 57 41
f 40 56 57
f 41 58 42
f 41 57 58
f 42 59 43
f 42 58 59
f 43 60 44
f 43 59 60
f 44 61 45
f 44 60 61
f 45 62 46
f 45 61 62
f 46 63 47
f 46 62 63
f 47 64 48
f 47 63 64
f 48 49 33
f 48 64 49
f 49 66 50
f 49 65 66
f 50 67 51
f 50 66 67
f 51 68 52
f 51 67 68
f 52 69 53
f 52 68 69
f 53 70 54
f 53 69 70
f 54 71 55
f 54 70 71
f 55 72 56
f 55 71 72
f 56 73 57
f 56 72 73
f 57 74 58
f 57 73 74
f 58 75 59
f 58 74 75
f 59 76 60
f 59 75 76
f 60 77 61
f 60 76 77
f 61 78 62
f 61 77 78
f 62 79 63
f 62 78 79
f 63 80 64
f 63 79 80
f 64 65 49
f 64 80 65
f 65 82 66
f 65 81 82
f 66 83 67
f 66 82 83
f 67 84 68
f 67 83 84
f 68 85 69
f 68 84 85
f 69 86 70
f 69 85 86
f 70 87 71
f 70 86 87
f 71 88 72
f 71 87 88
f 72 89 73
f 72 88 89
f 73 90 74
f 73 89 90
f 74 91 75
f 74 90 91
f 75 92 76
f 75 91 92
f 76 93 77
f 76 92 93
f 77 94 78
f 77 93 94
f 78 95 79
f 78 94 95
f 79 96 80
f 79 95 96
f 80 81 65
f 80 96 81
f 81 98 82
f 81 97 98
f 82 99 83
f 82 98 99
f 83 100 84
f 83 99 100
f 84 101 85
f 84 100 101
f 85 102 86
f 85 101 102
f 86 103 87
f 86 102 103
f 87 104 88
f 87 103 104
f 88 105 89
f 88 104 105
f 89 106 90
f 89 105 106
f 90 107 91
f 90 106 107
f 91 108 92
f 91 107 108
f 92 109 93
f 92 108 109
f 93 110 94
f 93 109 110
f 94 111 95
f 94 110 111
f 95 112 96
f 95 111 112
f 96 97 81
f 96 112 97
f 97 114 98
f 97 113 114
f 98 115 99
f 98 114 115
f 99 116 100
f 99 115 116
f 100 117 101
f 100 116 117
f 101 118 102
f 101 117 118
f 102 119 103
f 102 118 119
f 103 120 104
f 103 119 120
f 104 121 105
f 104 120 121
f 105 122 106
f 105 121 122
f 106 123 107
f 106 122 123
f 107 124 108
f 107 123 124
f 108 125 109
f 108 124 125
f 109 126 110
f 109 125 126
f 110 127 111
f 110 126 127
f 111 128 112
f 111 127 128
f 112 113 97
f 112 128 113
f 113 130 114
f 113 129 130
f 114 131 115
f 114 130 131
f 115 132 116
f 115 131 132
f 116 133 117
f 116 132 133
f 117 134 118
f 117 133 134
f 118 135 119
f 118 134 135
f 119 136 120
f 119 135 136
f 120 137 121
f 120 136 137
f 121 138 122
f 121 137 138
f 122 139 123
f 122 138 139
f 123 140 124
f 123 139 140
f 124 141 125
f 124 140 141
f 125 142 126
f 125 141 142
f 126 143 127
f 126 142 143
f 127 144 128
f 127 143 144
f 128 129 113
f 128 144 129
f 145 1 2
f 146 130 129
f 145 2 3
f 146 131 130
f 145 3 4
f 146 132 131
f 145 4 5
f 146 133 132
f 145 5 6
f 146 134 133
f 145 6 7
f 146 135 134
f 145 7 8
f 146 136 135
f 145 8 9
f 146 137 136
f 145 9 10
f 146 138 137
f 145 10 11
f 146 139 138
f 145 11 12
f 146 140 139
f 145 12 13
f 146 141 140
f 145 13 14
f 146 142 141
f 145 14 15
f 146 143 142
f 145 15 16
f 146 144 143
f 145 16 1
f 146 129 144
